<mxfile host="app.diagrams.net" modified="2023-03-09T15:35:47.571Z" agent="5.0 (Windows NT 10.0; Win64; x64) AppleWebKit/537.36 (KHTML, like Gecko) Chrome/110.0.0.0 Safari/537.36" etag="1oR7R3g0FXF9Cxp7madJ" version="21.0.6" type="github">
  <diagram name="第 1 页" id="m4bSyFdNswNypPYQyMq1">
    <mxGraphModel dx="1366" dy="804" grid="1" gridSize="10" guides="1" tooltips="1" connect="1" arrows="1" fold="1" page="1" pageScale="1" pageWidth="827" pageHeight="1169" math="0" shadow="0">
      <root>
        <mxCell id="0" />
        <mxCell id="1" parent="0" />
        <mxCell id="q0pLTp6sM2amgacvw2R1-3" value="" style="edgeStyle=orthogonalEdgeStyle;rounded=0;orthogonalLoop=1;jettySize=auto;html=1;" edge="1" parent="1" source="q0pLTp6sM2amgacvw2R1-1" target="q0pLTp6sM2amgacvw2R1-2">
          <mxGeometry relative="1" as="geometry" />
        </mxCell>
        <mxCell id="q0pLTp6sM2amgacvw2R1-6" value="" style="edgeStyle=orthogonalEdgeStyle;rounded=0;orthogonalLoop=1;jettySize=auto;html=1;" edge="1" parent="1" source="q0pLTp6sM2amgacvw2R1-1" target="q0pLTp6sM2amgacvw2R1-5">
          <mxGeometry relative="1" as="geometry">
            <Array as="points">
              <mxPoint x="250" y="490" />
            </Array>
          </mxGeometry>
        </mxCell>
        <mxCell id="q0pLTp6sM2amgacvw2R1-1" value="总" style="rounded=0;whiteSpace=wrap;html=1;" vertex="1" parent="1">
          <mxGeometry x="190" y="340" width="120" height="60" as="geometry" />
        </mxCell>
        <mxCell id="q0pLTp6sM2amgacvw2R1-2" value="bcc" style="rounded=0;whiteSpace=wrap;html=1;" vertex="1" parent="1">
          <mxGeometry x="390" y="340" width="120" height="60" as="geometry" />
        </mxCell>
        <mxCell id="q0pLTp6sM2amgacvw2R1-5" value="systrace" style="rounded=0;whiteSpace=wrap;html=1;" vertex="1" parent="1">
          <mxGeometry x="400" y="460" width="120" height="60" as="geometry" />
        </mxCell>
      </root>
    </mxGraphModel>
  </diagram>
</mxfile>
